<svg width="168" height="80" viewBox="0 0 168 80" fill="none" xmlns="http://www.w3.org/2000/svg">
<path d="M12.08 58.6715C10.5067 58.6715 9.05333 58.4182 7.71999 57.9115C6.38666 57.4048 5.23999 56.6982 4.27999 55.7915C3.31999 54.9115 2.59999 53.8715 2.11999 52.6715L6.27999 50.9515C6.65333 51.9648 7.33333 52.8048 8.31999 53.4715C9.33333 54.1382 10.5733 54.4715 12.04 54.4715C13.1867 54.4715 14.2133 54.2448 15.12 53.7915C16.0267 53.3648 16.7467 52.7248 17.28 51.8715C17.8133 51.0448 18.08 50.0448 18.08 48.8715V43.9915L18.88 44.9115C18.1333 46.2982 17.0933 47.3515 15.76 48.0715C14.4533 48.7915 12.9733 49.1515 11.32 49.1515C9.32 49.1515 7.51999 48.6848 5.91999 47.7515C4.31999 46.8182 3.05333 45.5382 2.11999 43.9115C1.21333 42.2848 0.759995 40.4582 0.759995 38.4315C0.759995 36.3782 1.21333 34.5515 2.11999 32.9515C3.05333 31.3515 4.30666 30.0848 5.87999 29.1515C7.45333 28.2182 9.25333 27.7515 11.28 27.7515C12.9333 27.7515 14.4 28.1115 15.68 28.8315C16.9867 29.5248 18.0533 30.5382 18.88 31.8715L18.28 32.9915V28.2315H22.56V48.8715C22.56 50.7382 22.1067 52.4048 21.2 53.8715C20.32 55.3648 19.0933 56.5382 17.52 57.3915C15.9467 58.2448 14.1333 58.6715 12.08 58.6715ZM11.84 44.9515C13.04 44.9515 14.1067 44.6715 15.04 44.1115C15.9733 43.5248 16.7067 42.7515 17.24 41.7915C17.8 40.8048 18.08 39.6982 18.08 38.4715C18.08 37.2448 17.8 36.1382 17.24 35.1515C16.68 34.1648 15.9333 33.3915 15 32.8315C14.0667 32.2448 13.0133 31.9515 11.84 31.9515C10.6133 31.9515 9.51999 32.2448 8.55999 32.8315C7.59999 33.3915 6.83999 34.1648 6.27999 35.1515C5.74666 36.1115 5.47999 37.2182 5.47999 38.4715C5.47999 39.6715 5.74666 40.7648 6.27999 41.7515C6.83999 42.7382 7.59999 43.5248 8.55999 44.1115C9.51999 44.6715 10.6133 44.9515 11.84 44.9515Z" fill="black"/>
<path d="M38.0109 50.3515C35.8509 50.3515 33.9309 49.8582 32.2509 48.8715C30.5976 47.8582 29.3043 46.4982 28.3709 44.7915C27.4376 43.0582 26.9709 41.1248 26.9709 38.9915C26.9709 36.8048 27.4376 34.8715 28.3709 33.1915C29.3309 31.5115 30.6109 30.1915 32.2109 29.2315C33.8109 28.2448 35.6243 27.7515 37.6509 27.7515C39.2776 27.7515 40.7309 28.0315 42.0109 28.5915C43.2909 29.1515 44.3709 29.9248 45.2509 30.9115C46.1309 31.8715 46.7976 32.9782 47.2509 34.2315C47.7309 35.4848 47.9709 36.8182 47.9709 38.2315C47.9709 38.5782 47.9576 38.9382 47.9309 39.3115C47.9043 39.6848 47.8509 40.0315 47.7709 40.3515H30.5309V36.7515H45.2109L43.0509 38.3915C43.3176 37.0848 43.2243 35.9248 42.7709 34.9115C42.3443 33.8715 41.6776 33.0582 40.7709 32.4715C39.8909 31.8582 38.8509 31.5515 37.6509 31.5515C36.4509 31.5515 35.3843 31.8582 34.4509 32.4715C33.5176 33.0582 32.7976 33.9115 32.2909 35.0315C31.7843 36.1248 31.5843 37.4582 31.6909 39.0315C31.5576 40.4982 31.7576 41.7782 32.2909 42.8715C32.8509 43.9648 33.6243 44.8182 34.6109 45.4315C35.6243 46.0448 36.7709 46.3515 38.0509 46.3515C39.3576 46.3515 40.4643 46.0582 41.3709 45.4715C42.3043 44.8848 43.0376 44.1248 43.5709 43.1915L47.2509 44.9915C46.8243 46.0048 46.1576 46.9248 45.2509 47.7515C44.3709 48.5515 43.3043 49.1915 42.0509 49.6715C40.8243 50.1248 39.4776 50.3515 38.0109 50.3515Z" fill="black"/>
<path d="M60.3822 50.3515C58.1688 50.3515 56.2222 49.8048 54.5422 48.7115C52.8888 47.6182 51.7289 46.1515 51.0622 44.3115L54.5422 42.6715C55.1288 43.8982 55.9288 44.8715 56.9422 45.5915C57.9822 46.3115 59.1288 46.6715 60.3822 46.6715C61.4489 46.6715 62.3155 46.4315 62.9822 45.9515C63.6488 45.4715 63.9822 44.8182 63.9822 43.9915C63.9822 43.4582 63.8355 43.0315 63.5422 42.7115C63.2488 42.3648 62.8755 42.0848 62.4222 41.8715C61.9955 41.6582 61.5555 41.4982 61.1022 41.3915L57.7022 40.4315C55.8355 39.8982 54.4355 39.0982 53.5022 38.0315C52.5955 36.9382 52.1422 35.6715 52.1422 34.2315C52.1422 32.9248 52.4755 31.7915 53.1422 30.8315C53.8088 29.8448 54.7289 29.0848 55.9022 28.5515C57.0755 28.0182 58.3955 27.7515 59.8622 27.7515C61.8355 27.7515 63.5955 28.2448 65.1422 29.2315C66.6888 30.1915 67.7822 31.5382 68.4222 33.2715L64.9422 34.9115C64.5155 33.8715 63.8355 33.0448 62.9022 32.4315C61.9955 31.8182 60.9688 31.5115 59.8222 31.5115C58.8355 31.5115 58.0488 31.7515 57.4622 32.2315C56.8755 32.6848 56.5822 33.2848 56.5822 34.0315C56.5822 34.5382 56.7155 34.9648 56.9822 35.3115C57.2488 35.6315 57.5955 35.8982 58.0222 36.1115C58.4488 36.2982 58.8888 36.4582 59.3422 36.5915L62.8622 37.6315C64.6488 38.1382 66.0222 38.9382 66.9822 40.0315C67.9422 41.0982 68.4222 42.3782 68.4222 43.8715C68.4222 45.1515 68.0755 46.2848 67.3822 47.2715C66.7155 48.2315 65.7822 48.9915 64.5822 49.5515C63.3822 50.0848 61.9822 50.3515 60.3822 50.3515Z" fill="black"/>
<path d="M82.2109 50.1115C79.9443 50.1115 78.1843 49.4715 76.9309 48.1915C75.6776 46.9115 75.0509 45.1115 75.0509 42.7915V32.3115H71.2509V28.2315H71.8509C72.8643 28.2315 73.6509 27.9382 74.2109 27.3515C74.7709 26.7648 75.0509 25.9648 75.0509 24.9515V23.2715H79.5709V28.2315H84.4909V32.3115H79.5709V42.5915C79.5709 43.3382 79.6909 43.9782 79.9309 44.5115C80.1709 45.0182 80.5576 45.4182 81.0909 45.7115C81.6243 45.9782 82.3176 46.1115 83.1709 46.1115C83.3843 46.1115 83.6243 46.0982 83.8909 46.0715C84.1576 46.0448 84.4109 46.0182 84.6509 45.9915V49.8715C84.2776 49.9248 83.8643 49.9782 83.4109 50.0315C82.9576 50.0848 82.5576 50.1115 82.2109 50.1115Z" fill="black"/>
<path d="M96.7819 50.3515C95.1552 50.3515 93.7285 49.9915 92.5019 49.2715C91.2752 48.5248 90.3152 47.4982 89.6219 46.1915C88.9552 44.8582 88.6219 43.3248 88.6219 41.5915V28.2315H93.1419V41.1915C93.1419 42.1782 93.3419 43.0448 93.7419 43.7915C94.1419 44.5382 94.7019 45.1248 95.4219 45.5515C96.1419 45.9515 96.9685 46.1515 97.9019 46.1515C98.8619 46.1515 99.7019 45.9382 100.422 45.5115C101.142 45.0848 101.702 44.4848 102.102 43.7115C102.529 42.9382 102.742 42.0315 102.742 40.9915V28.2315H107.222V49.8715H102.942V45.6315L103.422 46.1915C102.915 47.5248 102.075 48.5515 100.902 49.2715C99.7285 49.9915 98.3552 50.3515 96.7819 50.3515Z" fill="black"/>
<path d="M112.499 49.8715V28.2315H116.819V32.5915L116.419 31.9515C116.899 30.5382 117.673 29.5248 118.739 28.9115C119.806 28.2715 121.086 27.9515 122.579 27.9515H123.899V32.0715H122.019C120.526 32.0715 119.313 32.5382 118.379 33.4715C117.473 34.3782 117.019 35.6848 117.019 37.3915V49.8715H112.499Z" fill="black"/>
<path d="M137.152 50.3515C134.992 50.3515 133.072 49.8582 131.392 48.8715C129.738 47.8582 128.445 46.4982 127.512 44.7915C126.578 43.0582 126.112 41.1248 126.112 38.9915C126.112 36.8048 126.578 34.8715 127.512 33.1915C128.472 31.5115 129.752 30.1915 131.352 29.2315C132.952 28.2448 134.765 27.7515 136.792 27.7515C138.418 27.7515 139.872 28.0315 141.152 28.5915C142.432 29.1515 143.512 29.9248 144.392 30.9115C145.272 31.8715 145.938 32.9782 146.392 34.2315C146.872 35.4848 147.112 36.8182 147.112 38.2315C147.112 38.5782 147.098 38.9382 147.072 39.3115C147.045 39.6848 146.992 40.0315 146.912 40.3515H129.672V36.7515H144.352L142.192 38.3915C142.458 37.0848 142.365 35.9248 141.912 34.9115C141.485 33.8715 140.818 33.0582 139.912 32.4715C139.032 31.8582 137.992 31.5515 136.792 31.5515C135.592 31.5515 134.525 31.8582 133.592 32.4715C132.658 33.0582 131.938 33.9115 131.432 35.0315C130.925 36.1248 130.725 37.4582 130.832 39.0315C130.698 40.4982 130.898 41.7782 131.432 42.8715C131.992 43.9648 132.765 44.8182 133.752 45.4315C134.765 46.0448 135.912 46.3515 137.192 46.3515C138.498 46.3515 139.605 46.0582 140.512 45.4715C141.445 44.8848 142.178 44.1248 142.712 43.1915L146.392 44.9915C145.965 46.0048 145.298 46.9248 144.392 47.7515C143.512 48.5515 142.445 49.1915 141.192 49.6715C139.965 50.1248 138.618 50.3515 137.152 50.3515Z" fill="black"/>
<path d="M159.523 50.3515C157.309 50.3515 155.363 49.8048 153.683 48.7115C152.029 47.6182 150.869 46.1515 150.203 44.3115L153.683 42.6715C154.269 43.8982 155.069 44.8715 156.083 45.5915C157.123 46.3115 158.269 46.6715 159.523 46.6715C160.589 46.6715 161.456 46.4315 162.123 45.9515C162.789 45.4715 163.123 44.8182 163.123 43.9915C163.123 43.4582 162.976 43.0315 162.683 42.7115C162.389 42.3648 162.016 42.0848 161.563 41.8715C161.136 41.6582 160.696 41.4982 160.243 41.3915L156.843 40.4315C154.976 39.8982 153.576 39.0982 152.643 38.0315C151.736 36.9382 151.283 35.6715 151.283 34.2315C151.283 32.9248 151.616 31.7915 152.283 30.8315C152.949 29.8448 153.869 29.0848 155.043 28.5515C156.216 28.0182 157.536 27.7515 159.003 27.7515C160.976 27.7515 162.736 28.2448 164.283 29.2315C165.829 30.1915 166.923 31.5382 167.563 33.2715L164.083 34.9115C163.656 33.8715 162.976 33.0448 162.043 32.4315C161.136 31.8182 160.109 31.5115 158.963 31.5115C157.976 31.5115 157.189 31.7515 156.603 32.2315C156.016 32.6848 155.723 33.2848 155.723 34.0315C155.723 34.5382 155.856 34.9648 156.123 35.3115C156.389 35.6315 156.736 35.8982 157.163 36.1115C157.589 36.2982 158.029 36.4582 158.483 36.5915L162.003 37.6315C163.789 38.1382 165.163 38.9382 166.123 40.0315C167.083 41.0982 167.563 42.3782 167.563 43.8715C167.563 45.1515 167.216 46.2848 166.523 47.2715C165.856 48.2315 164.923 48.9915 163.723 49.5515C162.523 50.0848 161.123 50.3515 159.523 50.3515Z" fill="black"/>
<path d="M112.498 79.444V49.8715H117.016V79.444H112.498Z" fill="black"/>
<path d="M102.744 29.8834V0.555969L107.224 0.555969V29.8834H102.744Z" fill="black"/>
</svg>
