<svg width="120" height="58" viewBox="0 0 120 58" fill="none" xmlns="http://www.w3.org/2000/svg">
<path d="M8.14375 42.4325C7.01187 42.4325 5.96633 42.2502 5.00711 41.8857C4.04789 41.5212 3.22297 41.0129 2.53233 40.3606C1.8417 39.7275 1.32372 38.9793 0.978401 38.116L3.97116 36.8786C4.23974 37.6076 4.72894 38.2119 5.43876 38.6916C6.16776 39.1712 7.05983 39.411 8.11497 39.411C8.9399 39.411 9.67849 39.2479 10.3308 38.9218C10.983 38.6148 11.501 38.1544 11.8847 37.5405C12.2684 36.9458 12.4602 36.2264 12.4602 35.3823V31.8715L13.0358 32.5334C12.4986 33.531 11.7504 34.2887 10.7912 34.8067C9.85115 35.3247 8.78642 35.5837 7.597 35.5837C6.15817 35.5837 4.86323 35.248 3.71217 34.5765C2.56111 33.9051 1.64985 32.9842 0.978401 31.814C0.326134 30.6437 0 29.3296 0 27.8716C0 26.3944 0.326134 25.0803 0.978401 23.9292C1.64985 22.7782 2.55152 21.8669 3.68339 21.1954C4.81527 20.524 6.11021 20.1883 7.56822 20.1883C8.75765 20.1883 9.81278 20.4473 10.7336 20.9652C11.6737 21.464 12.441 22.193 13.0358 23.1522L12.6041 23.958V20.5336H15.6832V35.3823C15.6832 36.7252 15.3571 37.9242 14.7048 38.9793C14.0717 40.0536 13.1892 40.8978 12.0574 41.5116C10.9255 42.1255 9.62094 42.4325 8.14375 42.4325ZM7.97109 32.5622C8.83438 32.5622 9.60176 32.3607 10.2732 31.9579C10.9447 31.5358 11.4722 30.9795 11.8559 30.2888C12.2588 29.579 12.4602 28.7828 12.4602 27.9004C12.4602 27.0179 12.2588 26.2217 11.8559 25.5119C11.453 24.8021 10.9159 24.2458 10.2444 23.8429C9.57298 23.4208 8.8152 23.2098 7.97109 23.2098C7.08861 23.2098 6.30205 23.4208 5.61142 23.8429C4.92078 24.2458 4.37403 24.8021 3.97116 25.5119C3.58747 26.2026 3.39563 26.9987 3.39563 27.9004C3.39563 28.7637 3.58747 29.5502 3.97116 30.26C4.37403 30.9699 4.92078 31.5358 5.61142 31.9579C6.30205 32.3607 7.08861 32.5622 7.97109 32.5622Z" fill="black"/>
<path d="M26.7988 36.447C25.2449 36.447 23.8636 36.0921 22.655 35.3823C21.4655 34.6533 20.5351 33.6748 19.8636 32.4471C19.1922 31.2001 18.8565 29.8092 18.8565 28.2745C18.8565 26.7013 19.1922 25.3105 19.8636 24.1019C20.5543 22.8933 21.4751 21.9436 22.6262 21.253C23.7773 20.5432 25.0818 20.1883 26.5398 20.1883C27.71 20.1883 28.7556 20.3897 29.6764 20.7926C30.5973 21.1954 31.3742 21.7518 32.0073 22.4616C32.6404 23.1522 33.12 23.9484 33.4462 24.8501C33.7915 25.7517 33.9641 26.7109 33.9641 27.7277C33.9641 27.9771 33.9545 28.2361 33.9354 28.5047C33.9162 28.7733 33.8778 29.0227 33.8202 29.2529H21.4176V26.663H31.9786L30.4246 27.8428C30.6165 26.9028 30.5493 26.0683 30.2232 25.3393C29.9162 24.5911 29.4366 24.0059 28.7844 23.5839C28.1513 23.1427 27.4031 22.922 26.5398 22.922C25.6765 22.922 24.9091 23.1427 24.2377 23.5839C23.5662 24.0059 23.0482 24.6198 22.6837 25.4256C22.3192 26.2121 22.1754 27.1714 22.2521 28.3032C22.1562 29.3584 22.3001 30.2792 22.6837 31.0658C23.0866 31.8523 23.643 32.4662 24.3528 32.9075C25.0818 33.3487 25.9067 33.5693 26.8276 33.5693C27.7676 33.5693 28.5637 33.3583 29.216 32.9363C29.8875 32.5142 30.415 31.9674 30.7987 31.296L33.4462 32.5909C33.1392 33.3199 32.6596 33.9818 32.0073 34.5765C31.3742 35.152 30.6069 35.6125 29.7052 35.9578C28.8227 36.2839 27.8539 36.447 26.7988 36.447Z" fill="black"/>
<path d="M42.8929 36.447C41.3006 36.447 39.9002 36.0537 38.6916 35.2671C37.5021 34.4806 36.6676 33.4255 36.188 32.1017L38.6916 30.9219C39.1136 31.8044 39.6892 32.5046 40.4182 33.0226C41.1663 33.5406 41.9913 33.7995 42.8929 33.7995C43.6603 33.7995 44.2838 33.6269 44.7634 33.2816C45.243 32.9363 45.4828 32.4662 45.4828 31.8715C45.4828 31.4878 45.3773 31.1809 45.1663 30.9507C44.9553 30.7013 44.6867 30.4998 44.3605 30.3464C44.0536 30.1929 43.737 30.0778 43.4109 30.0011L40.9649 29.3104C39.622 28.9267 38.6148 28.3512 37.9434 27.5838C37.2911 26.7973 36.965 25.886 36.965 24.8501C36.965 23.91 37.2048 23.0947 37.6844 22.4041C38.164 21.6942 38.8259 21.1475 39.67 20.7638C40.5141 20.3801 41.4637 20.1883 42.5188 20.1883C43.9385 20.1883 45.2046 20.5432 46.3173 21.253C47.43 21.9436 48.2166 22.9124 48.677 24.1594L46.1735 25.3393C45.8665 24.5911 45.3773 23.9964 44.7059 23.5551C44.0536 23.1139 43.315 22.8933 42.4901 22.8933C41.7802 22.8933 41.2143 23.0659 40.7923 23.4112C40.3702 23.7374 40.1592 24.169 40.1592 24.7062C40.1592 25.0707 40.2551 25.3776 40.4469 25.627C40.6388 25.8572 40.8882 26.0491 41.1951 26.2026C41.5021 26.3368 41.8186 26.452 42.1447 26.5479L44.6771 27.2961C45.9624 27.6606 46.9504 28.2361 47.6411 29.0227C48.3317 29.79 48.677 30.7109 48.677 31.7852C48.677 32.706 48.4276 33.5214 47.9288 34.2312C47.4492 34.9218 46.7778 35.4686 45.9145 35.8715C45.0512 36.2551 44.044 36.447 42.8929 36.447Z" fill="black"/>
<path d="M58.5968 36.2743C56.9661 36.2743 55.7 35.8139 54.7983 34.8931C53.8966 33.9722 53.4458 32.6773 53.4458 31.0082V23.4688H50.712V20.5336H51.1437C51.8727 20.5336 52.4386 20.3226 52.8415 19.9005C53.2444 19.4784 53.4458 18.9029 53.4458 18.1739V16.9653H56.6976V20.5336H60.2371V23.4688H56.6976V30.8643C56.6976 31.4015 56.7839 31.8619 56.9565 32.2456C57.1292 32.6101 57.4074 32.8979 57.7911 33.1089C58.1748 33.3008 58.6735 33.3967 59.2874 33.3967C59.4409 33.3967 59.6136 33.3871 59.8054 33.3679C59.9973 33.3487 60.1795 33.3295 60.3522 33.3103V36.1017C60.0836 36.14 59.7862 36.1784 59.4601 36.2168C59.134 36.2551 58.8462 36.2743 58.5968 36.2743Z" fill="black"/>
<path d="M69.0793 36.447C67.9091 36.447 66.8827 36.188 66.0002 35.67C65.1178 35.1329 64.4271 34.3943 63.9283 33.4542C63.4487 32.495 63.2089 31.3919 63.2089 30.1449V20.5336H66.4607V29.8572C66.4607 30.567 66.6045 31.1905 66.8923 31.7276C67.1801 32.2648 67.5829 32.6869 68.1009 32.9938C68.6189 33.2816 69.2136 33.4255 69.8851 33.4255C70.5757 33.4255 71.18 33.272 71.698 32.965C72.216 32.6581 72.6188 32.2264 72.9066 31.6701C73.2135 31.1137 73.367 30.4615 73.367 29.7133V20.5336H76.59V36.1017H73.5109V33.0514L73.8562 33.4542C73.4917 34.4134 72.8874 35.152 72.0433 35.67C71.1992 36.188 70.2112 36.447 69.0793 36.447Z" fill="black"/>
<path d="M80.3867 36.1017V20.5336H83.4945V23.6702L83.2068 23.2098C83.5521 22.193 84.1084 21.464 84.8758 21.0228C85.6432 20.5624 86.564 20.3321 87.6384 20.3321H88.588V23.2961H87.2355C86.1612 23.2961 85.2883 23.6319 84.6168 24.3033C83.9646 24.9556 83.6384 25.8956 83.6384 27.1234V36.1017H80.3867Z" fill="black"/>
<path d="M98.1218 36.447C96.5678 36.447 95.1866 36.0921 93.978 35.3823C92.7885 34.6533 91.8581 33.6748 91.1866 32.4471C90.5152 31.2001 90.1795 29.8092 90.1795 28.2745C90.1795 26.7013 90.5152 25.3105 91.1866 24.1019C91.8773 22.8933 92.7981 21.9436 93.9492 21.253C95.1002 20.5432 96.4048 20.1883 97.8628 20.1883C99.033 20.1883 100.079 20.3897 100.999 20.7926C101.92 21.1954 102.697 21.7518 103.33 22.4616C103.963 23.1522 104.443 23.9484 104.769 24.8501C105.114 25.7517 105.287 26.7109 105.287 27.7277C105.287 27.9771 105.278 28.2361 105.258 28.5047C105.239 28.7733 105.201 29.0227 105.143 29.2529H92.7406V26.663H103.302L101.748 27.8428C101.939 26.9028 101.872 26.0683 101.546 25.3393C101.239 24.5911 100.76 24.0059 100.107 23.5839C99.4743 23.1427 98.7261 22.922 97.8628 22.922C96.9995 22.922 96.2321 23.1427 95.5607 23.5839C94.8892 24.0059 94.3712 24.6198 94.0067 25.4256C93.6422 26.2121 93.4983 27.1714 93.5751 28.3032C93.4792 29.3584 93.6231 30.2792 94.0067 31.0658C94.4096 31.8523 94.9659 32.4662 95.6758 32.9075C96.4048 33.3487 97.2297 33.5693 98.1505 33.5693C99.0906 33.5693 99.8867 33.3583 100.539 32.9363C101.21 32.5142 101.738 31.9674 102.122 31.296L104.769 32.5909C104.462 33.3199 103.983 33.9818 103.33 34.5765C102.697 35.152 101.93 35.6125 101.028 35.9578C100.146 36.2839 99.1769 36.447 98.1218 36.447Z" fill="black"/>
<path d="M114.216 36.447C112.624 36.447 111.223 36.0537 110.015 35.2671C108.825 34.4806 107.991 33.4255 107.511 32.1017L110.015 30.9219C110.437 31.8044 111.012 32.5046 111.741 33.0226C112.489 33.5406 113.314 33.7995 114.216 33.7995C114.983 33.7995 115.607 33.6269 116.086 33.2816C116.566 32.9363 116.806 32.4662 116.806 31.8715C116.806 31.4878 116.7 31.1809 116.489 30.9507C116.278 30.7013 116.01 30.4998 115.684 30.3464C115.377 30.1929 115.06 30.0778 114.734 30.0011L112.288 29.3104C110.945 28.9267 109.938 28.3512 109.266 27.5838C108.614 26.7973 108.288 25.886 108.288 24.8501C108.288 23.91 108.528 23.0947 109.007 22.4041C109.487 21.6942 110.149 21.1475 110.993 20.7638C111.837 20.3801 112.787 20.1883 113.842 20.1883C115.261 20.1883 116.528 20.5432 117.64 21.253C118.753 21.9436 119.54 22.9124 120 24.1594L117.496 25.3393C117.189 24.5911 116.7 23.9964 116.029 23.5551C115.377 23.1139 114.638 22.8933 113.813 22.8933C113.103 22.8933 112.537 23.0659 112.115 23.4112C111.693 23.7374 111.482 24.169 111.482 24.7062C111.482 25.0707 111.578 25.3776 111.77 25.627C111.962 25.8572 112.211 26.0491 112.518 26.2026C112.825 26.3368 113.142 26.452 113.468 26.5479L116 27.2961C117.285 27.6606 118.273 28.2361 118.964 29.0227C119.655 29.79 120 30.7109 120 31.7852C120 32.706 119.751 33.5214 119.252 34.2312C118.772 34.9218 118.101 35.4686 117.237 35.8715C116.374 36.2551 115.367 36.447 114.216 36.447Z" fill="black"/>
<path d="M80.3859 57.3765V36.1017H83.6357V57.3765H80.3859Z" fill="black"/>
<path d="M73.3683 21.722V0.623474L76.5912 0.623474V21.722H73.3683Z" fill="black"/>
</svg>
